#!OML:ASF H:\LiuWeirdWalks\Patient Classification 1\Patient 1\Session 1\male.ASF
:FULLY-SPECIFIED
:DEGREES
111
root -0.733089 17.5296 -27.3953 6.71111 5.00536 -2.81836
lowerback 5.3471 -0.326541 2.20486
upperback -1.71785 -0.109536 3.58881
thorax -4.7831 -0.0620513 2.49686
lowerneck -20.9955 0.993038 5.41259
upperneck 21.0374 1.497 -7.38846
head 10.2923 0.227616 -3.3212
rclavicle -1.08338e-014 1.27222e-014
rhumerus -35.0475 -11.0863 -75.932
rradius 20.9616
rwrist -0.315483
rhand -14.7807 -3.54713
rfingers 7.12502
rthumb 11.3763 -33.2185
lclavicle -1.08338e-014 1.27222e-014
lhumerus -36.9379 5.1994 85.1405
lradius 29.5546
lwrist 9.1629
lhand -11.866 -0.208609
lfingers 7.12502
lthumb 14.1862 29.287
rfemur -6.87651 -3.67894 26.1304
rtibia 29.2641
rfoot -27.9761 -21.8465
rtoes -8.02508
lfemur -30.7237 2.53875 -14.0039
ltibia 56.5924
lfoot -18.0536 14.102
ltoes -16.501
112
root -0.73372 17.5374 -27.3226 6.82407 5.01836 -2.81519
lowerback 5.50591 -0.0902375 2.37898
upperback -1.66333 0.216724 3.43094
thorax -4.82365 0.0919134 2.20392
lowerneck -21.0958 0.607444 5.15915
upperneck 21.0034 0.942793 -7.02896
head 10.2533 -0.00573482 -3.22966
rclavicle 1.12313e-014 -7.95139e-015
rhumerus -35.076 -11.8241 -75.7942
rradius 20.757
rwrist 0.205001
rhand -14.8137 -3.54088
rfingers 7.12502
rthumb 11.3444 -33.214
lclavicle 1.12313e-014 -7.95139e-015
lhumerus -36.8728 4.60251 85.2401
lradius 29.6627
lwrist 9.33627
lhand -11.8124 -0.144091
lfingers 7.12502
lthumb 14.2378 29.3479
rfemur -6.42448 -3.74148 26.1297
rtibia 28.6304
rfoot -27.6993 -21.9282
rtoes -7.9854
lfemur -31.6015 2.65896 -14.0912
ltibia 56.2552
lfoot -18.0362 14.326
ltoes -16.5258
113
root -0.734374 17.5453 -27.2486 6.93471 5.04129 -2.82489
lowerback 5.68996 0.00161303 2.48987
upperback -1.61225 0.353926 3.42068
thorax -4.87718 0.156309 2.11809
lowerneck -21.2053 0.502314 5.00245
upperneck 20.9143 0.821542 -6.9605
head 10.2321 -0.0675381 -3.19515
rclavicle -3.67752e-015 1.27222e-014
rhumerus -34.9401 -11.9617 -75.7374
rradius 20.5332
rwrist 0.654925
rhand -14.8531 -3.45747
rfingers 7.12502
rthumb 11.3065 -33.1327
lclavicle -3.67752e-015 1.27222e-014
lhumerus -36.9243 4.54479 85.3221
lradius 29.8133
lwrist 9.46043
lhand -11.769 -0.0367021
lfingers 7.12502
lthumb 14.2796 29.4523
rfemur -5.94602 -3.7905 26.1485
rtibia 27.9548
rfoot -27.3692 -22.0059
rtoes -7.87822
lfemur -32.454 2.7542 -14.1532
ltibia 55.7509
lfoot -17.9575 14.6061
ltoes -16.4647
114
root -0.734167 17.5536 -27.1727 7.04994 5.05283 -2.84031
lowerback 5.88828 0.0976091 2.61939
upperback -1.54644 0.498161 3.40341
thorax -4.9227 0.223487 2.01307
lowerneck -21.3597 0.380644 4.82465
upperneck 20.8155 0.678018 -6.87454
head 10.2144 -0.139766 -3.15443
rclavicle -6.85807e-015 2.38542e-014
rhumerus -34.75 -12.0929 -75.7224
rradius 20.3294
rwrist 1.07239
rhand -14.8861 -3.3798
rfingers 7.12502
rthumb 11.2746 -33.0568
lclavicle -6.85807e-015 2.38542e-014
lhumerus -36.9405 4.45454 85.4043
lradius 29.9575
lwrist 9.57345
lhand -11.7578 0.0663163
lfingers 7.12502
lthumb 14.2904 29.5546
rfemur -5.45127 -3.84274 26.1667
rtibia 27.2462
rfoot -26.9692 -22.0524
rtoes -7.69381
lfemur -33.2787 2.83742 -14.2038
ltibia 55.0904
lfoot -17.8389 14.9097
ltoes -16.3427
115
root -0.733297 17.5616 -27.0948 7.17332 5.06201 -2.86579
lowerback 6.08116 0.185405 2.75925
upperback -1.51303 0.634091 3.38951
thorax -4.99813 0.286024 1.90628
lowerneck -21.4034 0.303099 4.74078
upperneck 20.6736 0.588831 -6.87134
head 10.1651 -0.187664 -3.14899
rclavicle 3.08116e-015 -3.57812e-014
rhumerus -34.6108 -12.1419 -75.7383
rradius 20.1708
rwrist 1.39332
rhand -14.8701 -3.28596
rfingers 7.12502
rthumb 11.29 -32.9621
lclavicle 3.08116e-015 -3.57812e-014
lhumerus -37.0488 4.35675 85.4754
lradius 30.1252
lwrist 9.69693
lhand -11.7564 0.202509
lfingers 7.12502
lthumb 14.2918 29.6907
rfemur -4.95154 -3.89496 26.1932
rtibia 26.5173
rfoot -26.5019 -22.0514
rtoes -7.37175
lfemur -34.079 2.89923 -14.2308
ltibia 54.2878
lfoot -17.6669 15.1966
ltoes -16.2071
116
root -0.731667 17.5694 -27.0148 7.30789 5.08334 -2.87018
lowerback 6.25124 0.113637 2.80154
upperback -1.46204 0.555138 3.5279
thorax -5.04192 0.247822 2.03512
lowerneck -21.4792 0.48551 4.65642
upperneck 20.4663 0.919238 -7.10926
head 10.1291 -0.0719781 -3.1679
rclavicle -1.13307e-014 -7.15625e-015
rhumerus -34.2563 -11.5138 -75.855
rradius 20.0202
rwrist 1.52857
rhand -14.8152 -3.21936
rfingers 7.12502
rthumb 11.343 -32.8926
lclavicle -1.13307e-014 -7.15625e-015
lhumerus -37.2392 4.87655 85.5253
lradius 30.3195
lwrist 9.73287
lhand -11.7455 0.279032
lfingers 7.12502
lthumb 14.3023 29.7665
rfemur -4.44892 -3.97931 26.191
rtibia 25.7775
rfoot -25.9947 -22.0091
rtoes -6.9763
lfemur -34.8561 2.9237 -14.2689
ltibia 53.3597
lfoot -17.4337 15.4413
ltoes -16.0249
117
root -0.729314 17.5758 -26.9332 7.44875 5.11126 -2.87544
lowerback 6.42043 0.0778587 2.87476
upperback -1.41037 0.52476 3.62133
thorax -5.08422 0.231998 2.0949
lowerneck -21.5632 0.609401 4.5843
upperneck 20.2702 1.14789 -7.28611
head 10.0918 0.00554642 -3.18197
rclavicle -5.56597e-015 6.12257e-014
rhumerus -33.9312 -11.0036 -75.9947
rradius 19.9208
rwrist 1.57503
rhand -14.7299 -3.17911
rfingers 7.12502
rthumb 11.4253 -32.8478
lclavicle -5.56597e-015 6.12257e-014
lhumerus -37.4052 5.22211 85.5722
lradius 30.5042
lwrist 9.7691
lhand -11.7075 0.327585
lfingers 7.12502
lthumb 14.3389 29.8124
rfemur -3.94873 -4.08375 26.1855
rtibia 25.0395
rfoot -25.4678 -21.9372
rtoes -6.55532
lfemur -35.6094 2.92561 -14.2929
ltibia 52.3265
lfoot -17.1047 15.6188
ltoes -15.8832
118
root -0.726673 17.5809 -26.8501 7.59124 5.13825 -2.90822
lowerback 6.58926 -0.181645 2.82803
upperback -1.34746 0.198027 3.96463
thorax -5.11167 0.0774315 2.51628
lowerneck -21.7132 1.20888 4.72034
upperneck 20.0687 2.10405 -8.00863
head 10.1268 0.368171 -3.32084
rclavicle 7.35503e-015 3.10104e-014
rhumerus -33.3544 -9.43363 -76.2638
rradius 19.8478
rwrist 1.35859
rhand -14.6516 -3.21579
rfingers 7.12502
rthumb 11.5007 -32.8803
lclavicle 7.35503e-015 3.10104e-014
lhumerus -37.7059 6.49652 85.5933
lradius 30.7069
lwrist 9.67229
lhand -11.6662 0.290061
lfingers 7.12502
lthumb 14.3786 29.7721
rfemur -3.44749 -4.18128 26.2092
rtibia 24.3014
rfoot -24.9599 -21.8573
rtoes -6.17975
lfemur -36.3382 2.91905 -14.2727
ltibia 51.2123
lfoot -16.6819 15.7122
ltoes -15.8126
119
root -0.723695 17.5845 -26.7659 7.74379 5.18106 -2.94557
lowerback 6.76116 -0.498473 2.77941
upperback -1.27778 -0.203198 4.35396
thorax -5.12688 -0.113232 2.99769
lowerneck -21.8936 1.98386 5.02902
upperneck 19.7967 3.2962 -8.953
head 10.1792 0.826828 -3.53026
rclavicle -1.21259e-014 2.14687e-014
rhumerus -32.7101 -7.5903 -76.5763
rradius 19.801
rwrist 1.0417
rhand -14.5709 -3.23754
rfingers 7.12502
rthumb 11.5786 -32.8977
lclavicle -1.21259e-014 2.14687e-014
lhumerus -38.0314 7.97853 85.5968
lradius 30.9203
lwrist 9.54576
lhand -11.6226 0.189389
lfingers 7.12502
lthumb 14.4206 29.6684
rfemur -2.95032 -4.29474 26.2382
rtibia 23.5601
rfoot -24.4989 -21.7735
rtoes -5.90244
lfemur -37.0601 2.8947 -14.235
ltibia 50.0336
lfoot -16.1677 15.6991
ltoes -15.7949
120
root -0.720155 17.5869 -26.6794 7.90111 5.20866 -3.00844
lowerback 6.93434 -0.666469 2.81501
upperback -1.21409 -0.404525 4.61081
thorax -5.15167 -0.209732 3.2725
lowerneck -22.0122 2.47597 5.26414
upperneck 19.5454 4.0513 -9.62732
head 10.1973 1.11266 -3.69382
rclavicle -2.18663e-015 3.49861e-014
rhumerus -32.2356 -6.23059 -76.8771
rradius 19.8452
rwrist 0.691768
rhand -14.523 -3.28713
rfingers 7.12502
rthumb 11.6248 -32.9447
lclavicle -2.18663e-015 3.49861e-014
lhumerus -38.2604 8.90052 85.6184
lradius 31.0759
lwrist 9.453
lhand -11.5952 0.0735557
lfingers 7.12502
lthumb 14.4471 29.5507
rfemur -2.44583 -4.39277 26.2913
rtibia 22.8053
rfoot -24.0791 -21.6944
rtoes -5.73421
lfemur -37.7656 2.8803 -14.1598
ltibia 48.8122
lfoot -15.608 15.5748
ltoes -15.7906
121
root -0.716641 17.5878 -26.5911 8.06348 5.2531 -3.08793
lowerback 7.09764 -0.681207 2.93519
upperback -1.15578 -0.401069 4.71999
thorax -5.18411 -0.209764 3.32162
lowerneck -22.1074 2.64532 5.37583
upperneck 19.3421 4.3128 -9.95635
head 10.1775 1.20327 -3.78729
rclavicle -1.78906e-015 2.38542e-014
rhumerus -31.9117 -5.48877 -77.1478
rradius 19.9365
rwrist 0.402555
rhand -14.4943 -3.33313
rfingers 7.12502
rthumb 11.6525 -32.9891
lclavicle -1.78906e-015 2.38542e-014
lhumerus -38.3893 9.19482 85.6652
lradius 31.1936
lwrist 9.44936
lhand -11.594 -0.00777242
lfingers 7.12502
lthumb 14.4482 29.4693
rfemur -1.93096 -4.48142 26.3704
rtibia 22.0308
rfoot -23.6927 -21.6497
rtoes -5.66816
lfemur -38.467 2.85091 -14.0514
ltibia 47.5613
lfoot -15.0114 15.3256
ltoes -15.7588
122
root -0.712564 17.5876 -26.5011 8.24648 5.28915 -3.1809
lowerback 7.24714 -0.4791 3.16764
upperback -1.11204 -0.108129 4.62263
thorax -5.23417 -0.0733225 3.05597
lowerneck -22.2013 2.31931 5.20536
upperneck 19.2516 3.84512 -9.72254
head 10.1105 1.0017 -3.7435
rclavicle -1.80894e-014 -2.22639e-014
rhumerus -31.8031 -5.59397 -77.3823
rradius 20.1019
rwrist 0.207732
rhand -14.4941 -3.39586
rfingers 7.12502
rthumb 11.6526 -33.0518
lclavicle -1.80894e-014 -2.22639e-014
lhumerus -38.3908 8.64702 85.7387
lradius 31.2634
lwrist 9.51545
lhand -11.6171 -0.0197855
lfingers 7.12502
lthumb 14.426 29.4588
rfemur -1.4218 -4.55254 26.4654
rtibia 21.2307
rfoot -23.3103 -21.6267
rtoes -5.67446
lfemur -39.178 2.82174 -13.9186
ltibia 46.2991
lfoot -14.4155 14.9584
ltoes -15.7525
123
root -0.707599 17.586 -26.4086 8.44578 5.29678 -3.30469
lowerback 7.38548 -0.030019 3.55231
upperback -1.08143 0.516308 4.29003
thorax -5.29178 0.218114 2.41711
lowerneck -22.2773 1.48039 4.79821
upperneck 19.2556 2.60614 -8.90051
head 9.99569 0.495395 -3.56525
rclavicle 1.05356e-014 4.77083e-015
rhumerus -31.887 -6.71929 -77.5634
rradius 20.299
rwrist 0.181615
rhand -14.5036 -3.43003
rfingers 7.12502
rthumb 11.6435 -33.0865
lclavicle 1.05356e-014 4.77083e-015
lhumerus -38.231 7.14068 85.8354
lradius 31.2658
lwrist 9.6953
lhand -11.6533 0.0331041
lfingers 7.12502
lthumb 14.3911 29.5142
rfemur -0.915751 -4.59525 26.5895
rtibia 20.4079
rfoot -22.9191 -21.5997
rtoes -5.71269
lfemur -39.8877 2.81017 -13.7434
ltibia 45.0411
lfoot -13.8193 14.4887
ltoes -15.7845
124
root -0.702101 17.5832 -26.3134 8.66596 5.2987 -3.42265
lowerback 7.50307 0.369467 3.92392
upperback -1.05423 1.07415 3.99422
thorax -5.32607 0.477173 1.83156
lowerneck -22.321 0.69266 4.3296
upperneck 19.2187 1.46124 -8.07261
head 9.88546 0.0293871 -3.35754
rclavicle -1.98785e-014 -2.8625e-014
rhumerus -31.8985 -7.60555 -77.7858
rradius 20.5167
rwrist 0.102638
rhand -14.5028 -3.51821
rfingers 7.12502
rthumb 11.6443 -33.1747
lclavicle -1.98785e-014 -2.8625e-014
lhumerus -38.103 5.83406 85.9002
lradius 31.2722
lwrist 9.85592
lhand -11.6843 0.111389
lfingers 7.12502
lthumb 14.3612 29.5946
rfemur -0.412745 -4.6172 26.7109
rtibia 19.5633
rfoot -22.5228 -21.5896
rtoes -5.76051
lfemur -40.5997 2.79596 -13.5654
ltibia 43.8041
lfoot -13.2519 13.9349
ltoes -15.8133
125
root -0.695754 17.5792 -26.2149 8.90001 5.28261 -3.53633
lowerback 7.60453 0.845766 4.34431
upperback -1.01653 1.73254 3.61312
thorax -5.32177 0.783096 1.11763
lowerneck -22.3342 -0.217709 3.84463
upperneck 19.0984 0.113459 -7.08053
head 9.74392 -0.511452 -3.11448
rclavicle 2.10712e-014 -5.56597e-015
rhumerus -31.9212 -8.80103 -78.0069
rradius 20.7653
rwrist 0.0802819
rhand -14.4915 -3.60369
rfingers 7.12502
rthumb 11.6551 -33.2595
lclavicle 2.10712e-014 -5.56597e-015
lhumerus -37.8839 4.23892 85.9532
lradius 31.2415
lwrist 10.0329
lhand -11.7032 0.178612
lfingers 7.12502
lthumb 14.343 29.6631
rfemur 0.0930305 -4.61542 26.827
rtibia 18.7023
rfoot -22.1201 -21.5893
rtoes -5.82955
lfemur -41.2971 2.77213 -13.3806
ltibia 42.6036
lfoot -12.7016 13.3475
ltoes -15.9083
